<mxfile host="app.diagrams.net" modified="2023-05-26T10:07:25.448Z" agent="Mozilla/5.0 (X11; Linux x86_64; rv:108.0) Gecko/20100101 Firefox/108.0" etag="aHoKMi0yC2xDSJYsV7Hh" version="21.3.4" type="device">
  <diagram name="Page-1" id="COTHiYU2oobBMXKfAucC">
    <mxGraphModel dx="954" dy="547" grid="1" gridSize="10" guides="1" tooltips="1" connect="1" arrows="1" fold="1" page="1" pageScale="1" pageWidth="827" pageHeight="1169" math="0" shadow="0">
      <root>
        <mxCell id="0" />
        <mxCell id="1" parent="0" />
        <mxCell id="dpIyyQrG5vywkC4SpeAJ-1" value="" style="shape=umlLifeline;perimeter=lifelinePerimeter;whiteSpace=wrap;html=1;container=1;dropTarget=0;collapsible=0;recursiveResize=0;outlineConnect=0;portConstraint=eastwest;newEdgeStyle={&quot;edgeStyle&quot;:&quot;elbowEdgeStyle&quot;,&quot;elbow&quot;:&quot;vertical&quot;,&quot;curved&quot;:0,&quot;rounded&quot;:0};participant=umlActor;" vertex="1" parent="1">
          <mxGeometry x="230" y="70" width="20" height="570" as="geometry" />
        </mxCell>
        <mxCell id="dpIyyQrG5vywkC4SpeAJ-2" value="Sistema" style="shape=umlLifeline;perimeter=lifelinePerimeter;whiteSpace=wrap;html=1;container=1;dropTarget=0;collapsible=0;recursiveResize=0;outlineConnect=0;portConstraint=eastwest;newEdgeStyle={&quot;edgeStyle&quot;:&quot;elbowEdgeStyle&quot;,&quot;elbow&quot;:&quot;vertical&quot;,&quot;curved&quot;:0,&quot;rounded&quot;:0};" vertex="1" parent="1">
          <mxGeometry x="430" y="70" width="100" height="570" as="geometry" />
        </mxCell>
        <mxCell id="dpIyyQrG5vywkC4SpeAJ-3" value="ALT" style="shape=umlFrame;whiteSpace=wrap;html=1;pointerEvents=0;fillColor=#fff2cc;strokeColor=#d6b656;" vertex="1" parent="1">
          <mxGeometry x="160" y="140" width="390" height="460" as="geometry" />
        </mxCell>
        <mxCell id="dpIyyQrG5vywkC4SpeAJ-5" value="" style="endArrow=none;endFill=0;endSize=12;html=1;rounded=0;strokeColor=#0000FF;" edge="1" parent="1">
          <mxGeometry width="160" relative="1" as="geometry">
            <mxPoint x="160" y="410" as="sourcePoint" />
            <mxPoint x="550" y="410" as="targetPoint" />
            <Array as="points">
              <mxPoint x="340" y="410" />
            </Array>
          </mxGeometry>
        </mxCell>
        <mxCell id="dpIyyQrG5vywkC4SpeAJ-13" value="" style="group" vertex="1" connectable="0" parent="1">
          <mxGeometry x="180" y="190" width="350" height="190" as="geometry" />
        </mxCell>
        <mxCell id="dpIyyQrG5vywkC4SpeAJ-6" value="LOOP" style="shape=umlFrame;whiteSpace=wrap;html=1;pointerEvents=0;fillColor=#dae8fc;strokeColor=#6c8ebf;" vertex="1" parent="dpIyyQrG5vywkC4SpeAJ-13">
          <mxGeometry width="350" height="190" as="geometry" />
        </mxCell>
        <mxCell id="dpIyyQrG5vywkC4SpeAJ-7" value="prenotazionePersonale(Membro, Turno)" style="html=1;verticalAlign=bottom;endArrow=block;edgeStyle=elbowEdgeStyle;elbow=vertical;curved=0;rounded=0;" edge="1" parent="dpIyyQrG5vywkC4SpeAJ-13" source="dpIyyQrG5vywkC4SpeAJ-1" target="dpIyyQrG5vywkC4SpeAJ-2">
          <mxGeometry width="80" relative="1" as="geometry">
            <mxPoint x="190" y="120" as="sourcePoint" />
            <mxPoint x="270" y="120" as="targetPoint" />
            <Array as="points">
              <mxPoint x="180" y="40" />
            </Array>
          </mxGeometry>
        </mxCell>
        <mxCell id="dpIyyQrG5vywkC4SpeAJ-8" value="" style="endArrow=none;endFill=0;endSize=12;html=1;rounded=0;startArrow=none;startFill=0;" edge="1" parent="dpIyyQrG5vywkC4SpeAJ-13" source="dpIyyQrG5vywkC4SpeAJ-1" target="dpIyyQrG5vywkC4SpeAJ-2">
          <mxGeometry width="160" relative="1" as="geometry">
            <mxPoint x="150" y="120" as="sourcePoint" />
            <mxPoint x="310" y="120" as="targetPoint" />
            <Array as="points">
              <mxPoint x="200" y="120" />
            </Array>
          </mxGeometry>
        </mxCell>
        <mxCell id="dpIyyQrG5vywkC4SpeAJ-9" value="ALT" style="shape=umlFrame;whiteSpace=wrap;html=1;pointerEvents=0;fillColor=#f8cecc;strokeColor=#b85450;" vertex="1" parent="dpIyyQrG5vywkC4SpeAJ-13">
          <mxGeometry x="10" y="50" width="330" height="130" as="geometry" />
        </mxCell>
        <mxCell id="dpIyyQrG5vywkC4SpeAJ-11" value="il membro scelto lavora ad un altro evento" style="html=1;verticalAlign=bottom;endArrow=none;edgeStyle=elbowEdgeStyle;elbow=vertical;curved=0;rounded=0;startArrow=block;startFill=1;endFill=0;" edge="1" parent="dpIyyQrG5vywkC4SpeAJ-13">
          <mxGeometry width="80" relative="1" as="geometry">
            <mxPoint x="60" y="94.5" as="sourcePoint" />
            <mxPoint x="300" y="94.5" as="targetPoint" />
            <Array as="points">
              <mxPoint x="180" y="94.5" />
            </Array>
          </mxGeometry>
        </mxCell>
        <mxCell id="dpIyyQrG5vywkC4SpeAJ-12" value="il membro scelto non Ã¨ disponibile" style="html=1;verticalAlign=bottom;endArrow=none;edgeStyle=elbowEdgeStyle;elbow=vertical;curved=0;rounded=0;startArrow=block;startFill=1;endFill=0;" edge="1" parent="dpIyyQrG5vywkC4SpeAJ-13">
          <mxGeometry width="80" relative="1" as="geometry">
            <mxPoint x="60" y="154.5" as="sourcePoint" />
            <mxPoint x="300" y="154.5" as="targetPoint" />
            <Array as="points">
              <mxPoint x="180" y="154.5" />
            </Array>
          </mxGeometry>
        </mxCell>
        <mxCell id="dpIyyQrG5vywkC4SpeAJ-14" value="LOOP" style="shape=umlFrame;whiteSpace=wrap;html=1;pointerEvents=0;fillColor=#dae8fc;strokeColor=#6c8ebf;" vertex="1" parent="1">
          <mxGeometry x="180" y="430" width="350" height="150" as="geometry" />
        </mxCell>
        <mxCell id="dpIyyQrG5vywkC4SpeAJ-15" value="cancellazionePrenotazione(Membro, Turno)" style="html=1;verticalAlign=bottom;endArrow=block;edgeStyle=elbowEdgeStyle;elbow=vertical;curved=0;rounded=0;" edge="1" parent="1">
          <mxGeometry width="80" relative="1" as="geometry">
            <mxPoint x="240" y="480" as="sourcePoint" />
            <mxPoint x="480" y="480" as="targetPoint" />
            <Array as="points">
              <mxPoint x="360" y="480" />
            </Array>
          </mxGeometry>
        </mxCell>
        <mxCell id="dpIyyQrG5vywkC4SpeAJ-16" value="prenotazione cancellata" style="html=1;verticalAlign=bottom;endArrow=none;edgeStyle=elbowEdgeStyle;elbow=vertical;curved=0;rounded=0;startArrow=block;startFill=1;endFill=0;" edge="1" parent="1">
          <mxGeometry width="80" relative="1" as="geometry">
            <mxPoint x="240" y="530" as="sourcePoint" />
            <mxPoint x="480" y="530" as="targetPoint" />
            <Array as="points">
              <mxPoint x="360" y="530" />
            </Array>
          </mxGeometry>
        </mxCell>
      </root>
    </mxGraphModel>
  </diagram>
</mxfile>
